<svg width="72" height="72" viewBox="0 0 72 72" xmlns="http://www.w3.org/2000/svg" xmlns:xlink="http://www.w3.org/1999/xlink"><title>8A5C6001-9586-49F6-826D-FDCEAF76B96B</title><defs><path d="M36 72C16.118 72 0 55.882 0 36S16.118 0 36 0s36 16.118 36 36-16.118 36-36 36zm21.652-48.897a17.525 17.525 0 0 1-5.029 1.379 8.784 8.784 0 0 0 3.85-4.84 17.557 17.557 0 0 1-5.558 2.121A8.729 8.729 0 0 0 44.53 19a8.751 8.751 0 0 0-8.523 10.743c-7.272-.366-13.72-3.85-18.037-9.143a8.724 8.724 0 0 0-1.183 4.402 8.743 8.743 0 0 0 3.891 7.283 8.714 8.714 0 0 1-3.963-1.095v.11c0 4.242 3.017 7.773 7.017 8.58a8.662 8.662 0 0 1-3.952.15c1.117 3.473 4.347 6.007 8.175 6.077a17.552 17.552 0 0 1-10.868 3.743A17.22 17.22 0 0 1 15 49.728a24.756 24.756 0 0 0 13.413 3.932c16.095 0 24.899-13.335 24.899-24.895 0-.382-.01-.76-.027-1.133a17.629 17.629 0 0 0 4.367-4.529z" id="a"/></defs><use fill="#FFF" xlink:href="#a" fill-rule="evenodd"/></svg>