<svg width="180" height="130" viewBox="0 0 180 130" xmlns="http://www.w3.org/2000/svg" xmlns:xlink="http://www.w3.org/1999/xlink"><title>CFF2B3BC-35DC-4A88-9944-65DC1555C76D</title><defs><path d="M16.288 0C9.178 11.059 2.12 25.747 20.844 39.511c1.345 1.233.31 2.345-1.64 1.335-2.052-1.01-13.821-10.853-13.908-12.24-7.127 8.389-5.763 15.698 15.583 23.11 2.07.6 1.156 2.312-1.001 1.558C17.79 52.418 1.76 45.758.55 43.96-1.244 55.328.223 58.34 22.362 63.459c3.762.6 3.193 1.884-.5 1.387-3.762-.393-18.688-4.588-20.086-5.101C.43 71.95 12.267 74.159 28.851 71.83c4.21-.48 3.175 1.164-1.036 1.712-3.693.479-8.386 1.147-12.562.547-5.004 9.553 7.852 10.922 19.672 11.83 26.35 1.985 26.902.102 27.35-2.432.225-1.233-5.85-1.215-12.614-3.27-13.58-4.125-12.976-16.074-10.095-24.291C33.526 52.299 13.854 19.277 16.288 0z" id="a"/><mask id="c" x="-4" y="-4" width="70.282" height="94.749"><path fill="#fff" d="M-4-4h70.282v94.749H-4z"/><use xlink:href="#a"/></mask><path d="M113.947 0c-7.11 11.059-14.167 25.747 4.556 39.511 1.345 1.233.31 2.345-1.64 1.335-2.052-1.01-13.821-10.853-13.908-12.24-7.126 8.389-5.763 15.698 15.583 23.11 2.07.6 1.156 2.312-1.001 1.558-2.088-.856-18.118-7.516-19.327-9.313-1.795 11.367-.327 14.38 21.811 19.498 3.762.6 3.193 1.884-.5 1.387-3.762-.393-18.688-4.588-20.086-5.101C98.09 71.95 109.926 74.159 126.51 71.83c4.21-.48 3.175 1.164-1.036 1.712-3.693.479-8.386 1.147-12.562.547-5.004 9.553 7.852 10.922 19.672 11.83 26.35 1.985 26.902.102 27.35-2.432.225-1.233-5.85-1.215-12.614-3.27-13.58-4.125-12.976-16.074-10.095-24.291-6.04-3.628-25.712-36.65-23.278-55.927z" id="b"/><mask id="d" x="-4" y="-4" width="70.282" height="94.749"><path fill="#fff" d="M93.659-4h70.282v94.749H93.659z"/><use xlink:href="#b"/></mask></defs><g fill="none" fill-rule="evenodd"><g stroke="#6DC6FE" fill-rule="nonzero" stroke-width="8" transform="translate(8 26)"><use mask="url(#c)" xlink:href="#a"/><use mask="url(#d)" transform="matrix(-1 0 0 1 257.6 0)" xlink:href="#b"/></g><path d="M64.005 118.284L41.563 90.526c-1.465-1.85-2.051-4.212-1.465-6.501l8.01-34.65c.512-2.288 2.05-4.139 4.175-5.162l32.43-15.462c1.027-.51 2.199-.754 3.347-.754 1.147 0 2.295.243 3.32.754l32.456 15.39c2.1 1.022 3.663 2.873 4.175 5.161l8.01 34.65c.513 2.313 0 4.675-1.49 6.525l-22.442 27.759c-1.465 1.777-3.638 2.873-5.958 2.873l-36.167.049a7.536 7.536 0 0 1-5.959-2.874z" fill="#FFF"/><path d="M132.53 89.114l-22.394 27.685c-.977 1.266-2.565 2.021-4.225 2.021H70.013c-1.66 0-3.248-.755-4.25-2.021L43.395 89.114c-1.025-1.315-1.44-2.995-1.098-4.627l8.01-34.576c.39-1.656 1.465-2.995 2.93-3.677L85.569 30.87c.757-.317 1.636-.463 2.417-.463.806 0 1.612.17 2.32.487l32.357 15.34c1.514.755 2.613 2.119 2.955 3.677l7.986 34.576c.415 1.632.024 3.312-1.075 4.627m5.275-5.528L129.82 49.01c-.709-2.922-2.662-5.357-5.373-6.647L92.186 26.95c-1.318-.61-2.783-.95-4.2-.95-1.416 0-2.833.317-4.273.95L51.356 42.363a9.782 9.782 0 0 0-5.373 6.647l-7.986 34.576c-.708 2.947 0 5.99 1.905 8.377l22.394 27.685c1.856 2.313 4.64 3.652 7.668 3.652h35.874c3.028 0 5.812-1.339 7.643-3.652l22.394-27.685c1.93-2.338 2.637-5.382 1.93-8.377" fill="#B7B7B7"/><path d="M104.983 86.898c-1.612 2.557-3.712 4.602-6.154 6.185l-4.054-9.643c-.17-.755.147-1.582.904-1.972.268-.122.586-.195.903-.195l10.257 1.729c-.39 1.412-1.026 2.678-1.856 3.896zM92.48 95.76c-1.466.317-2.955.511-4.494.511-2.246 0-4.42-.365-6.471-1.022l5.055-9.107c.513-.584 1.367-.852 2.051-.463.342.195.586.463.782.707l4.933 8.863c-.587.195-1.221.316-1.856.511zM69.085 83.075l10.183-1.729c.83-.073 1.612.512 1.807 1.34.05.39.05.706-.073 1.022l-3.907 9.375c-3.59-2.29-6.472-5.795-8.01-10.008zm1.734-17.312l7.619 6.769c.708.584.781 1.656.195 2.362-.195.268-.464.462-.781.511l-9.94 2.873c-.366-4.334.587-8.741 2.907-12.515zm12.625-9.058c.708-.122 1.343-.244 2.051-.366l-.586 10.203c-.049.9-.757 1.656-1.734 1.656-.244 0-.561-.073-.757-.195l-8.522-6.063a19.542 19.542 0 0 1 9.548-5.235zm18.584 5.235l-8.4 5.941a1.724 1.724 0 0 1-2.247-.39c-.196-.194-.245-.438-.318-.706l-.561-10.397c4.42.511 8.45 2.484 11.526 5.552zm5.52 9.886c.512 2.191.634 4.358.439 6.452l-9.793-2.8a1.73 1.73 0 0 1-1.221-2.045c.049-.268.195-.512.39-.706l7.742-6.964c1.099 1.801 1.93 3.847 2.442 6.063zm-16.729 6.647l-2.833 1.34-2.808-1.34-.708-2.995 1.929-2.435h3.126l1.929 2.435-.635 2.995zm29.67 3.117c-.048 0-.048 0 0 0h-.048c-.073 0-.146 0-.146-.049-.123 0-.245-.073-.367-.073-.464-.049-.83-.122-1.22-.122-.196 0-.391 0-.636-.073H118c-1.343-.122-2.442-.243-3.468-.56-.44-.195-.561-.462-.708-.706 0-.073-.049-.073-.049-.122l-.83-.268a25.43 25.43 0 0 0-.464-8.984 26.372 26.372 0 0 0-3.59-8.377l.635-.56v-.146c0-.316.073-.633.318-.95.781-.706 1.733-1.266 2.906-1.972.195-.122.366-.195.561-.316.391-.195.708-.39 1.1-.633.072-.073.195-.146.317-.268.073-.049.122-.049.122-.122.903-.78 1.099-2.045.464-2.873-.318-.438-.904-.706-1.49-.706-.513 0-.952.194-1.392.511l-.146.122c-.122.073-.196.195-.318.268-.317.316-.561.56-.83.9-.122.122-.244.317-.44.439-.903.95-1.734 1.729-2.564 2.289-.195.121-.39.194-.586.194-.122 0-.269 0-.39-.073h-.123l-.781.512c-.83-.877-1.71-1.656-2.613-2.41a25.88 25.88 0 0 0-13.407-5.309l-.073-.828-.122-.122c-.196-.194-.44-.39-.513-.828-.05-1.022.073-2.167.195-3.457v-.049c0-.195.073-.462.122-.633.073-.39.147-.78.196-1.217v-.585c0-1.144-.904-2.094-1.978-2.094-.513 0-1.026.244-1.417.633-.39.39-.586.901-.586 1.461v.512c0 .438.073.827.195 1.217.074.195.074.39.147.633v.073c.122 1.266.317 2.41.17 3.433-.048.463-.317.633-.512.828-.049.073-.049.073-.122.146l-.049.828c-1.172.122-2.32.244-3.468.512A24.603 24.603 0 0 0 69.72 58.75l-.635-.438h-.147c-.122 0-.244.048-.366.048-.195 0-.39-.048-.586-.17-.83-.584-1.66-1.412-2.564-2.362-.122-.146-.244-.316-.44-.463a9.526 9.526 0 0 0-.855-.876c-.048-.073-.17-.146-.317-.268-.049-.073-.122-.073-.122-.122a2.292 2.292 0 0 0-1.417-.511c-.561 0-1.147.243-1.465.706-.635.828-.44 2.094.44 2.873.073 0 .073.049.146.049.122.073.171.195.318.268.366.243.708.438 1.074.633.196.073.391.195.586.316 1.148.707 2.125 1.267 2.882 1.973.317.316.317.657.317.974v.121l.66.56c-.147.195-.269.341-.342.512-3.2 5.04-4.42 10.981-3.59 16.85l-.83.268c0 .048-.049.048-.049.121a1.64 1.64 0 0 1-.708.706c-.977.317-2.125.439-3.468.56h-.073c-.196 0-.44 0-.635.073-.39 0-.757.074-1.221.122-.122 0-.244.073-.39.073-.05 0-.123 0-.172.073-1.172.244-1.88 1.34-1.685 2.362.196.877 1.026 1.461 2.052 1.461.195 0 .317 0 .512-.073.074 0 .147 0 .147-.049.122 0 .244-.073.366-.073a5.563 5.563 0 0 0 1.172-.438c.171-.073.367-.195.562-.268h.073c1.221-.438 2.296-.828 3.321-.95h.147c.366 0 .635.195.83.317.05 0 .05.073.122.073l.904-.146a25.301 25.301 0 0 0 8.4 12.004c.88.707 1.783 1.267 2.76 1.85l-.39.829c0 .073.048.073.048.122.147.267.269.584.147 1.022-.391.974-.977 1.924-1.685 2.995v.073c-.122.195-.244.317-.367.512-.268.316-.464.633-.708 1.022-.073.073-.122.195-.195.317 0 .073-.073.122-.073.122-.513 1.095-.122 2.313.83 2.751.269.122.513.195.781.195.757 0 1.539-.511 1.93-1.218 0-.048.048-.121.048-.121.074-.122.147-.268.196-.317.195-.463.268-.78.39-1.144.074-.195.123-.39.196-.585.44-1.266.757-2.289 1.343-3.19.244-.39.586-.438.83-.584.074 0 .074 0 .122-.049l.464-.827a25.323 25.323 0 0 0 8.963 1.655c1.856 0 3.785-.194 5.592-.633a29.076 29.076 0 0 0 3.321-.974l.39.706c.074 0 .074 0 .123.073.317.05.586.195.83.56.513.901.904 1.997 1.368 3.19v.073c.049.195.122.39.17.585.147.365.196.755.392 1.144l.195.317c0 .073.073.121.073.121a2.126 2.126 0 0 0 1.905 1.218c.269 0 .513-.073.781-.195.44-.243.83-.633.953-1.144.146-.512.146-1.096-.122-1.607 0-.05-.074-.05-.074-.122a1.854 1.854 0 0 0-.17-.317c-.196-.39-.464-.706-.709-1.022-.146-.195-.268-.317-.39-.512v-.073c-.709-1.071-1.344-2.02-1.661-2.995-.147-.438 0-.706.049-1.022 0-.05.073-.05.073-.122l-.317-.755c3.394-1.997 6.276-4.797 8.45-8.23 1.171-1.802 2.05-3.774 2.71-5.747l.757.122c.073 0 .073-.073.122-.073.269-.122.464-.316.855-.316h.122c1.025.121 2.1.51 3.32.974h.074c.196.048.39.17.586.243.367.195.684.317 1.148.438.122 0 .244.073.39.073.05 0 .123 0 .172.073.195.05.342.05.513.05.976 0 1.807-.634 2.05-1.462 0-.779-.683-1.777-1.855-2.118z" fill="#B7B7B7"/></g></svg>