<svg width="180" height="130" viewBox="0 0 180 130" xmlns="http://www.w3.org/2000/svg" xmlns:xlink="http://www.w3.org/1999/xlink"><title>1A7F0736-2A72-497C-9F17-189AF6229135</title><defs><path d="M39.326 18c8.988 0 16.25 7.262 16.25 16.246 0 .662-.053 1.32-.137 2.002l-.228 1.638h1.729A10.04 10.04 0 0 1 67 47.943 10.04 10.04 0 0 1 56.94 58H11.152A11.114 11.114 0 0 1 0 46.851c0-5.15 3.473-9.48 8.193-10.785l1.092-.273-.045-1.183c-.007-.204 0-.31 0-.319a7.25 7.25 0 0 1 7.282-7.28 7.32 7.32 0 0 1 5.19 2.138l1.592 1.638.774-2.139C26.368 22.46 32.324 18 39.326 18z" id="a"/><mask id="d" x="-4" y="-4" width="75" height="48"><path fill="#fff" d="M-4 14h75v48H-4z"/><use xlink:href="#a"/></mask><path d="M90.478 0c11.537 0 20.858 9.258 20.858 20.713 0 .845-.068 1.684-.176 2.553l-.292 2.089h2.103c7.268 0 13.029 5.723 13.029 12.822 0 7.1-5.761 12.823-12.912 12.823H54.314C46.37 51 40 44.671 40 36.785c0-6.566 4.457-12.088 10.516-13.75l1.402-.349-.058-1.509c-.01-.26 0-.393 0-.406 0-5.157 4.153-9.283 9.348-9.283a9.427 9.427 0 0 1 6.66 2.727l2.045 2.089.993-2.727C73.846 5.687 81.491 0 90.478 0z" id="b"/><mask id="e" x="-4" y="-4" width="94" height="59"><path fill="#fff" d="M36-4h94v59H36z"/><use xlink:href="#b"/></mask><path d="M75.152 27c14.89 0 26.92 12.708 26.92 28.43 0 1.16-.086 2.311-.226 3.504l-.377 2.867H104.334c9.23 0 16.666 7.855 16.666 17.6C121 89.144 113.564 97 104.335 97h-75.86C18.222 97 10 88.314 10 77.49c0-9.013 5.753-16.592 13.573-18.875l1.81-.477-.075-2.07c-.012-.358 0-.542 0-.558 0-7.078 5.36-12.742 12.065-12.742 3.351 0 6.407 1.427 8.596 3.743l2.64 2.867 1.282-3.743C53.685 34.805 63.552 27 75.152 27z" id="c"/><mask id="f" x="-4" y="-4" width="119" height="78"><path fill="#fff" d="M6 23h119v78H6z"/><use xlink:href="#c"/></mask></defs><g fill="none" fill-rule="evenodd"><g transform="matrix(-1 0 0 1 94 17)"><use fill="#FFF" xlink:href="#a"/><use stroke="#B7B7B7" mask="url(#d)" stroke-width="8" xlink:href="#a"/></g><g transform="matrix(-1 0 0 1 193 17)"><use fill="#FFF" xlink:href="#b"/><use stroke="#B7B7B7" mask="url(#e)" stroke-width="8" xlink:href="#b"/></g><g transform="translate(27 17)"><use fill="#FFF" xlink:href="#c"/><use stroke="#6DC6FE" mask="url(#f)" stroke-width="8" xlink:href="#c"/></g></g></svg>