<svg width="180" height="130" viewBox="0 0 180 130" xmlns="http://www.w3.org/2000/svg"><title>B73586EF-B953-4321-B55B-E502F2D07AD6</title><g fill="none" fill-rule="evenodd"><path d="M147.873 84.081l-28.788 35.567c-1.256 1.627-3.297 2.596-5.431 2.596h-46.15c-2.135 0-4.176-.97-5.463-2.596L33.284 84.08c-1.318-1.69-1.852-3.848-1.413-5.943l10.298-44.42c.502-2.127 1.883-3.847 3.767-4.723L87.502 9.256c.973-.406 2.104-.594 3.108-.594 1.036 0 2.072.219 2.983.626l41.597 19.707c1.947.97 3.36 2.721 3.799 4.723l10.266 44.42c.533 2.095.031 4.254-1.382 5.943m6.782-7.1l-10.266-44.42c-.91-3.754-3.422-6.882-6.907-8.54L96.01 4.22C94.315 3.438 92.431 3 90.61 3c-1.82 0-3.642.407-5.494 1.22L43.52 24.021a12.57 12.57 0 0 0-6.907 8.54L26.346 76.98c-.91 3.784 0 7.694 2.449 10.76l28.788 35.567C59.97 126.28 63.548 128 67.441 128h46.118c3.893 0 7.472-1.72 9.827-4.692l28.788-35.567c2.48-3.003 3.391-6.913 2.48-10.76" fill="#B7B7B7"/><path d="M112.633 81.576c-2.076 3.288-4.782 5.918-7.928 7.953L99.483 77.13c-.22-.97.189-2.035 1.164-2.536.346-.157.755-.25 1.164-.25l13.213 2.222c-.504 1.816-1.322 3.444-2.391 5.01zM96.526 92.972c-1.887.407-3.806.658-5.788.658a27.32 27.32 0 0 1-8.337-1.315l6.512-11.71c.66-.75 1.762-1.095 2.643-.594.44.25.755.595 1.006.908l6.355 11.396c-.755.25-1.573.407-2.391.657zm-30.137-16.31l13.118-2.224c1.07-.094 2.076.658 2.328 1.722.063.501.063.908-.095 1.315L76.707 89.53c-4.624-2.943-8.336-7.452-10.318-12.868zm2.233-22.26l9.815 8.703c.913.751 1.007 2.129.252 3.037-.252.344-.598.595-1.007.657L64.88 70.494c-.472-5.573.755-11.24 3.743-16.093zm16.264-11.647c.913-.156 1.73-.313 2.643-.47l-.755 13.118c-.063 1.159-.975 2.13-2.234 2.13-.314 0-.723-.095-.975-.251l-10.979-7.796c3.366-3.35 7.582-5.666 12.3-6.73zm23.94 6.731l-10.821 7.64c-.913.563-2.14.406-2.895-.502-.251-.25-.314-.563-.409-.908l-.723-13.368a25.067 25.067 0 0 1 14.848 7.138zm7.11 12.711c.66 2.818.818 5.604.566 8.297l-12.615-3.6c-1.164-.345-1.824-1.472-1.573-2.63.063-.345.252-.658.504-.909l9.972-8.954c1.416 2.317 2.485 4.947 3.146 7.796zm-21.55 8.547l-3.648 1.722-3.618-1.722-.912-3.85 2.485-3.132h4.027l2.485 3.131-.818 3.851zm38.223 4.007c-.063 0-.063 0 0 0h-.063c-.094 0-.189 0-.189-.062-.157 0-.314-.094-.471-.094-.598-.063-1.07-.157-1.573-.157-.252 0-.504 0-.818-.094h-.095c-1.73-.156-3.146-.313-4.467-.72-.566-.25-.723-.595-.912-.908 0-.094-.063-.094-.063-.156l-1.07-.345c.472-3.756.315-7.701-.597-11.552a33.874 33.874 0 0 0-4.625-10.77l.818-.72v-.188c0-.407.095-.814.41-1.22 1.006-.909 2.233-1.629 3.743-2.537.251-.156.472-.25.723-.407.504-.25.913-.5 1.416-.814.094-.094.252-.187.409-.344.094-.063.157-.063.157-.157 1.164-1.001 1.416-2.63.598-3.694-.41-.563-1.164-.908-1.92-.908-.66 0-1.226.25-1.792.658l-.189.156c-.157.094-.252.25-.409.345-.409.407-.723.72-1.07 1.158-.157.157-.314.407-.566.564-1.164 1.22-2.233 2.222-3.303 2.942-.252.157-.503.25-.755.25-.157 0-.346 0-.503-.093h-.158l-1.006.657c-1.07-1.127-2.202-2.128-3.366-3.099a33.375 33.375 0 0 0-17.271-6.825l-.095-1.065-.157-.156c-.251-.25-.566-.501-.66-1.065-.063-1.314.094-2.786.251-4.445v-.063c0-.25.095-.595.158-.814.094-.5.188-1.002.251-1.565v-.752c0-1.471-1.164-2.692-2.548-2.692-.66 0-1.321.313-1.825.814-.503.5-.755 1.158-.755 1.878v.658a5.1 5.1 0 0 0 .252 1.565c.094.25.094.501.189.814v.094c.157 1.628.409 3.1.22 4.415-.063.594-.409.814-.66 1.064-.064.094-.064.094-.158.188l-.063 1.064c-1.51.157-2.988.313-4.467.658-6.355 1.377-11.986 4.57-16.358 9.173l-.818-.564h-.19c-.156 0-.314.063-.471.063-.252 0-.503-.063-.755-.22-1.07-.75-2.14-1.815-3.303-3.036-.157-.188-.315-.407-.566-.595-.346-.407-.661-.72-1.101-1.127-.063-.094-.22-.188-.41-.344-.062-.094-.157-.094-.157-.157a2.956 2.956 0 0 0-1.824-.657c-.724 0-1.479.313-1.888.908-.818 1.064-.566 2.692.566 3.694.095 0 .095.063.19.063.156.093.22.25.408.344.472.313.912.563 1.384.814.252.094.504.25.755.407 1.479.908 2.737 1.628 3.712 2.536.41.407.41.845.41 1.252v.157l.849.72c-.189.25-.346.438-.44.657-4.122 6.48-5.695 14.12-4.625 21.665l-1.07.344c0 .063-.063.063-.063.157-.188.344-.44.657-.912.908-1.258.407-2.737.563-4.467.72h-.094c-.252 0-.567 0-.818.094-.504 0-.976.094-1.573.156-.158 0-.315.094-.504.094-.063 0-.157 0-.22.094-1.51.313-2.422 1.722-2.17 3.037.251 1.127 1.32 1.879 2.642 1.879.252 0 .409 0 .66-.094.095 0 .19 0 .19-.063.157 0 .314-.094.471-.094a7.175 7.175 0 0 0 1.51-.563c.22-.094.472-.25.724-.345h.094c1.573-.563 2.957-1.064 4.279-1.22h.188c.472 0 .818.25 1.07.406.063 0 .063.094.157.094l1.164-.188c1.982 6.074 5.789 11.49 10.822 15.435 1.133.908 2.297 1.628 3.555 2.38l-.503 1.064c0 .094.062.094.062.156.19.345.347.752.19 1.315-.504 1.252-1.26 2.473-2.171 3.851v.094c-.158.25-.315.407-.472.657-.346.407-.598.814-.913 1.315-.094.094-.157.25-.251.407 0 .094-.095.157-.095.157-.66 1.409-.157 2.974 1.07 3.538.346.156.66.25 1.007.25.975 0 1.982-.657 2.485-1.565 0-.063.063-.157.063-.157.094-.156.189-.344.251-.407.252-.595.346-1.002.504-1.471.094-.25.157-.501.251-.752.567-1.628.976-2.943 1.73-4.101.315-.501.756-.564 1.07-.751.095 0 .095 0 .158-.063l.597-1.064a32.677 32.677 0 0 0 11.546 2.128c2.39 0 4.876-.25 7.204-.814a37.51 37.51 0 0 0 4.278-1.252l.503.908c.095 0 .095 0 .158.094.409.063.755.25 1.07.72.66 1.158 1.163 2.567 1.76 4.101v.094c.064.25.158.501.221.752.189.47.252.97.503 1.471l.252.407c0 .094.095.157.095.157a2.74 2.74 0 0 0 2.453 1.565c.346 0 .66-.094 1.007-.25.566-.314 1.07-.814 1.227-1.472.189-.657.189-1.409-.157-2.066 0-.063-.095-.063-.095-.157a2.382 2.382 0 0 0-.22-.407c-.252-.5-.598-.908-.912-1.315-.19-.25-.346-.407-.504-.657v-.094c-.912-1.378-1.73-2.599-2.139-3.85-.189-.564 0-.909.063-1.316 0-.062.094-.062.094-.156l-.409-.97c4.373-2.568 8.085-6.168 10.885-10.583 1.51-2.317 2.643-4.852 3.492-7.388l.975.156c.095 0 .095-.094.158-.094.346-.156.597-.407 1.1-.407h.158c1.321.157 2.705.658 4.278 1.253h.095c.251.062.503.219.755.313.472.25.88.407 1.478.563.158 0 .315.094.504.094.063 0 .157 0 .22.094.252.063.44.063.66.063 1.259 0 2.328-.814 2.643-1.879 0-1.002-.88-2.285-2.39-2.724z" fill="#6DC6FE"/></g></svg>