<svg width="180" height="130" viewBox="0 0 180 130" xmlns="http://www.w3.org/2000/svg"><title>1423ABDE-D972-4BB6-A1FA-6BACC8BB8227</title><g fill="none" fill-rule="evenodd"><path d="M89.959 19c-.16.003-.318.02-.474.051a59.29 59.29 0 0 0-29.992 8.403c-.219.09-.424.21-.611.354-8.956 5.494-16.362 13.295-21.433 22.567a2.633 2.633 0 0 0-.325.6c-4.44 8.341-6.986 17.849-7.073 27.944-.068.34-.068.69 0 1.03.082 11.099 2.836 20.851 8.183 29.78a2.598 2.598 0 0 0 3.028 1.146 2.627 2.627 0 0 0 1.804-2.705l.122 1.616 9.792-5.71a2.63 2.63 0 0 0 1.356-2.286 2.63 2.63 0 0 0-1.324-2.305 2.59 2.59 0 0 0-2.644.046l-8.707 5.074c-3.707-6.911-5.94-14.173-6.33-22.531h10.347a2.604 2.604 0 0 0 2.289-1.303 2.644 2.644 0 0 0 0-2.648 2.604 2.604 0 0 0-2.289-1.302H35.326a55.339 55.339 0 0 1 5.382-21.29c1.472.802 3.81 2.076 9.074 4.95a2.59 2.59 0 0 0 2.645-.027 2.632 2.632 0 0 0 1.26-2.342 2.628 2.628 0 0 0-1.42-2.248l-9.069-4.955c4.166-6.925 9.755-12.873 16.427-17.36l5.362 8.998a2.604 2.604 0 0 0 2.286 1.304c.94-.012 1.8-.533 2.252-1.362.453-.83.427-1.84-.067-2.646l-5.362-9.003c6.99-3.783 14.895-6.07 23.296-6.469v10.424a2.63 2.63 0 0 0 1.293 2.306 2.59 2.59 0 0 0 2.629 0 2.63 2.63 0 0 0 1.293-2.306V24.371a54.12 54.12 0 0 1 21.157 5.382l-4.94 9.177a2.644 2.644 0 0 0 .028 2.664 2.603 2.603 0 0 0 2.325 1.27 2.606 2.606 0 0 0 2.23-1.43l4.935-9.173a55.158 55.158 0 0 1 17.216 16.586l-8.931 5.401a2.63 2.63 0 0 0-1.294 2.303 2.63 2.63 0 0 0 1.351 2.27 2.59 2.59 0 0 0 2.626-.068l8.937-5.402c3.755 7.041 6.026 15.006 6.42 23.47h-10.346a2.604 2.604 0 0 0-2.289 1.302 2.644 2.644 0 0 0 0 2.648 2.604 2.604 0 0 0 2.289 1.303h10.347c-.39 8.358-2.623 15.62-6.33 22.53l-8.707-5.073a2.59 2.59 0 0 0-2.644-.046 2.63 2.63 0 0 0-1.324 2.305 2.63 2.63 0 0 0 1.356 2.286l9.792 5.71.122-1.616a2.627 2.627 0 0 0 1.804 2.705 2.598 2.598 0 0 0 3.028-1.145c5.343-8.923 8.097-18.667 8.183-29.755a2.646 2.646 0 0 0 0-1.04c-.092-11.04-3.127-21.38-8.36-30.258a2.632 2.632 0 0 0-.306-.538 60.604 60.604 0 0 0-22.38-21.598 2.6 2.6 0 0 0-.723-.384 59.24 59.24 0 0 0-27.675-7.106 2.589 2.589 0 0 0-.545-.05z" fill="#B7B7B7"/><path d="M120.134 58.907c-.498-.011-.99.122-1.415.384L94.974 73.435c-1.36-1.147-3.081-1.868-4.975-1.868-4.288 0-7.82 3.56-7.82 7.88s3.532 7.88 7.82 7.88c4.29 0 7.822-3.56 7.822-7.88a7.83 7.83 0 0 0-.153-1.513l23.704-14.123a2.635 2.635 0 0 0 1.229-2.925 2.612 2.612 0 0 0-2.467-1.98zM90 76.82c.824 0 1.513.383 1.986.959.106.27.256.522.443.744.104.287.179.593.179.923 0 1.482-1.137 2.627-2.608 2.627-1.47 0-2.607-1.145-2.607-2.627 0-1.482 1.137-2.626 2.607-2.626zM74.357 100.46a2.604 2.604 0 0 0-2.29 1.302 2.644 2.644 0 0 0 0 2.648 2.604 2.604 0 0 0 2.29 1.303h31.285a2.604 2.604 0 0 0 2.29-1.303 2.644 2.644 0 0 0 0-2.648 2.604 2.604 0 0 0-2.29-1.302H74.357z" fill="#6DC6FE" fill-rule="nonzero"/></g></svg>