<svg width="180" height="130" viewBox="0 0 180 130" xmlns="http://www.w3.org/2000/svg"><title>BEA0D6D8-EDF1-4EE8-93ED-D23F1881ABFE</title><g fill="none" fill-rule="evenodd"><path d="M88.25 29v7.259c-5.2.663-14.625 5.309-14.625 16.59 0 21.237 30.266 10.308 30.266 26.235 0 5.309-2.316 10.265-12.391 10.265s-13-7.922-13-12.235H72c.975 14.268 10.725 17.565 16.25 18.56V102h6.5v-6.325c4.875-.332 16.25-3.94 16.25-17.213 0-10.95-8.816-13.978-17.266-15.97-6.825-1.658-13-3.297-13-10.265 0-2.986 1.32-9.643 11.07-9.643 6.826 0 10.096 4.334 11.071 9.643h6.5c-1.95-7.3-5.2-13.895-14.625-15.554V29h-6.5z" fill="#6DC6FE"/><path d="M90.5 13c3.42 0 6.712.304 9.946.923a3.283 3.283 0 0 0 1.846.41C125.638 19.673 143 40.494 143 65.5c0 25.074-17.47 45.897-40.913 51.167a3.288 3.288 0 0 0-1.538.41c-3.266.632-6.594.923-10.049.923C61.425 118 38 94.575 38 65.5S61.425 13 90.5 13z" stroke="#B7B7B7" stroke-width="6"/><path d="M54 32l74.5 68.5" stroke="#B7B7B7" stroke-width="6" stroke-linecap="square"/></g></svg>